<svg width="20" height="20" viewBox="0 0 20 20" fill="none" xmlns="http://www.w3.org/2000/svg">
<path d="M10.0003 1.66669L12.114 2.11163L14.167 2.78314L15.775 4.22531L17.2172 5.83335L17.8887 7.88633L18.3337 10L17.8887 12.1137L17.2172 14.1667L15.775 15.7747L14.167 17.2169L12.114 17.8884L10.0003 18.3334L7.88664 17.8884L5.83366 17.2169L4.22562 15.7747L2.78345 14.1667L2.11193 12.1137L1.66699 10L2.11193 7.88633L2.78345 5.83335L4.22562 4.22531L5.83366 2.78314L7.88664 2.11163L10.0003 1.66669Z" fill="url(#paint0_radial_2_1313)"/>
<path d="M9.99967 3.33331L11.6906 3.68926L13.333 4.22648L14.6194 5.38022L15.7732 6.66665L16.3104 8.30903L16.6663 9.99998L16.3104 11.6909L15.7732 13.3333L14.6194 14.6197L13.333 15.7735L11.6906 16.3107L9.99967 16.6666L8.30872 16.3107L6.66634 15.7735L5.37991 14.6197L4.22617 13.3333L3.68896 11.6909L3.33301 9.99998L3.68896 8.30903L4.22617 6.66665L5.37991 5.38022L6.66634 4.22648L8.30872 3.68926L9.99967 3.33331Z" fill="url(#paint1_radial_2_1313)"/>
<path d="M5.97 12.25V11.2367L8.11667 8.82333V8.74333H6.03667V7.85H9.29V8.95L7.21667 11.2833V11.3567H9.37667V12.25H5.97ZM12.0315 12.3433C11.7515 12.3433 11.5026 12.3144 11.2848 12.2567C11.067 12.2033 10.8781 12.1233 10.7181 12.0167C10.5581 11.91 10.4248 11.7811 10.3181 11.63C10.2159 11.4789 10.1381 11.31 10.0848 11.1233C10.0359 10.9322 10.0115 10.7256 10.0115 10.5033V7.85H11.0915V10.47C11.0915 10.6833 11.1248 10.8589 11.1915 10.9967C11.2581 11.1344 11.3603 11.2367 11.4981 11.3033C11.6359 11.3656 11.8115 11.3967 12.0248 11.3967C12.2381 11.3967 12.4137 11.3656 12.5515 11.3033C12.6892 11.2367 12.7915 11.1344 12.8581 10.9967C12.9248 10.8589 12.9581 10.6833 12.9581 10.47V7.85H14.0315V10.5033C14.0315 11.0856 13.8648 11.5389 13.5315 11.8633C13.2026 12.1833 12.7026 12.3433 12.0315 12.3433Z" fill="#834700"/>
<defs>
<radialGradient id="paint0_radial_2_1313" cx="0" cy="0" r="1" gradientUnits="userSpaceOnUse" gradientTransform="translate(10.0003 10) rotate(90) scale(8.33333)">
<stop stop-color="#FFC657"/>
<stop offset="1" stop-color="#FFBA36"/>
</radialGradient>
<radialGradient id="paint1_radial_2_1313" cx="0" cy="0" r="1" gradientUnits="userSpaceOnUse" gradientTransform="translate(9.99967 9.99998) rotate(90) scale(6.66667)">
<stop stop-color="#FFCC9D"/>
<stop offset="1" stop-color="#F29100"/>
</radialGradient>
</defs>
</svg>
