<svg width="20" height="20" viewBox="0 0 20 20" fill="none" xmlns="http://www.w3.org/2000/svg">
<path d="M9.89861 17.4097C6.79788 17.9338 4.77319 16.0267 4.14844 15.0077L4.73073 13.1699L5.40401 11.9871L5.89533 9.69427L7.31467 7.89279L8.77041 7.82001L11.9366 7.89279L14.9573 12.0962L15.9763 14.6074C14.2003 17.417 11.1845 17.6463 9.89861 17.4097Z" fill="url(#paint0_linear_2_1319)"/>
<path fill-rule="evenodd" clip-rule="evenodd" d="M10.7741 12.7745C10.6877 12.8318 10.5879 12.8657 10.4845 12.8729C10.3811 12.8802 10.2776 12.8605 10.1841 12.8159C10.059 12.7423 9.95864 12.633 9.89594 12.5021C9.83325 12.3712 9.81102 12.2245 9.8321 12.0809C9.77849 11.3688 9.47618 10.6982 8.97806 10.1865C8.81408 10.91 8.52318 11.5987 8.11885 12.2207L7.63749 12.9557C7.17789 13.657 6.96148 14.4899 7.02155 15.3263C7.06696 15.8888 7.32197 16.4138 7.73608 16.7972C8.15019 17.1806 8.6932 17.3946 9.25757 17.3966H10.5619C11.2103 17.3966 11.8323 17.1394 12.2912 16.6814C12.7502 16.2234 13.0088 15.602 13.0101 14.9536C13.0092 13.7121 12.5795 12.509 11.7938 11.5478C11.5723 12.0422 11.2197 12.4664 10.7741 12.7745Z" fill="url(#paint1_linear_2_1319)"/>
<path fill-rule="evenodd" clip-rule="evenodd" d="M13.0612 3.42069L12.7921 3.18259C12.7921 3.18259 12.7921 3.28611 12.7921 3.45692C12.7286 4.11195 12.5218 4.745 12.1864 5.31121C11.8509 5.87742 11.3951 6.36292 10.8511 6.7333C10.8511 6.7333 10.8511 6.55214 10.8149 6.26747C10.7246 5.13955 10.3545 4.05193 9.73818 3.103C9.12183 2.15407 8.27863 1.37378 7.28485 0.832703C7.28485 0.832703 7.24862 1.42794 7.20721 2.07493C7.14613 3.10806 6.81603 4.10727 6.24966 4.97347L4.7331 7.27678C3.70144 8.85264 3.21757 10.7244 3.35629 12.6028C3.42532 13.5209 3.73799 14.404 4.26205 15.161C4.78612 15.918 5.50261 16.5215 6.33765 16.9093C6.04673 16.4579 5.86916 15.943 5.82005 15.4082C5.74378 14.3127 6.02729 13.2223 6.6275 12.3026L7.10887 11.5728C7.61041 10.8312 7.90848 9.97095 7.97325 9.07802C7.98073 8.97888 8.0125 8.8831 8.06576 8.79915C8.11902 8.7152 8.19213 8.64565 8.27864 8.59665C8.36568 8.54815 8.46367 8.5227 8.56331 8.5227C8.66296 8.5227 8.76095 8.54815 8.84799 8.59665C9.77038 9.09907 10.4718 9.9279 10.8149 10.9207C10.8683 10.7758 10.9014 10.6243 10.9132 10.4704C10.9047 10.3365 10.9374 10.2034 11.0068 10.0886C11.0762 9.97392 11.179 9.88316 11.3014 9.82853C11.4345 9.78579 11.5775 9.78523 11.711 9.82692C11.8444 9.86862 11.9617 9.95053 12.0467 10.0614C12.7246 10.6825 13.2649 11.4385 13.6331 12.2809C14.0012 13.1233 14.189 14.0334 14.1844 14.9527C14.1851 15.5771 14.0227 16.1909 13.7134 16.7333C14.6334 16.2531 15.4046 15.5306 15.9437 14.6439C16.4829 13.7572 16.7694 12.74 16.7724 11.7022C16.7707 10.1385 16.4393 8.59275 15.7998 7.16577C15.1603 5.73879 14.2272 4.46267 13.0612 3.42069Z" fill="#FF7A1A"/>
<defs>
<linearGradient id="paint0_linear_2_1319" x1="10.0624" y1="7.82001" x2="10.0624" y2="17.4991" gradientUnits="userSpaceOnUse">
<stop stop-color="#FFC888"/>
<stop offset="1" stop-color="#FFEBCD"/>
</linearGradient>
<linearGradient id="paint1_linear_2_1319" x1="10.0109" y1="10.1865" x2="10.0109" y2="17.3966" gradientUnits="userSpaceOnUse">
<stop stop-color="#FFBD8D"/>
<stop offset="1" stop-color="#FF6B00"/>
</linearGradient>
</defs>
</svg>
