<svg width="46" height="24" viewBox="0 0 46 24" fill="none" xmlns="http://www.w3.org/2000/svg">
<g clip-path="url(#clip0_2_1117)">
<path d="M9.1215 12.3388H13.8307V14.9953H5.55078V12.8563L10.1737 5.57689H5.63703V2.92041H13.7445V5.05939L9.1215 12.3388Z" fill="#1E2026"/>
<path d="M20.6146 6.37038H23.2021V14.9953H20.6146V14.1846C20.0971 14.8861 19.2749 15.2368 18.1479 15.2368C17.2279 15.2368 16.4574 14.9206 15.8364 14.2881C15.2269 13.6556 14.9222 12.7816 14.9222 11.6661V6.37038H17.5096V11.2866C17.5096 11.7926 17.6476 12.1836 17.9236 12.4596C18.2111 12.7241 18.5734 12.8563 19.0104 12.8563C19.5049 12.8563 19.8959 12.7068 20.1834 12.4078C20.4709 12.1088 20.6146 11.6661 20.6146 11.0796V6.37038Z" fill="#1E2026"/>
<path d="M32.8621 14.9953L32.2584 13.0978H27.7734L27.1697 14.9953H24.151L28.2564 2.92041H31.7754L35.8809 14.9953H32.8621ZM28.6014 10.5103H31.4304L30.0159 6.07713L28.6014 10.5103Z" fill="#1E2026"/>
<path d="M36.9105 6.15476C37.7448 5.59338 38.8361 5.59338 39.6704 6.15476V14.9953H36.9105V6.15476Z" fill="#1E2026"/>
<path d="M38.2871 0.76416C38.2871 0.76416 38.6381 2.56918 40.4433 2.92039C40.4433 2.92039 38.6381 3.2716 38.2871 5.07662C37.9361 3.2716 36.1309 2.92039 36.1309 2.92039C37.9361 2.56918 38.2871 0.76416 38.2871 0.76416Z" fill="#F9C94E"/>
<path d="M27.7367 17.8275C28.2116 17.8275 28.6155 17.9962 28.9484 18.3335C29.2858 18.6709 29.4544 19.0837 29.4544 19.5719C29.4544 20.0602 29.2858 20.473 28.9484 20.8103C28.6155 21.1476 28.2116 21.3163 27.7367 21.3163C27.1464 21.3163 26.6981 21.0722 26.3918 20.5839V21.2364H25.9524V16.5759H26.3918V18.5599C26.6981 18.0717 27.1464 17.8275 27.7367 17.8275ZM26.7713 20.5107C27.0243 20.7637 27.335 20.8902 27.7034 20.8902C28.0718 20.8902 28.3825 20.7637 28.6355 20.5107C28.8885 20.2532 29.015 19.9403 29.015 19.5719C29.015 19.2035 28.8885 18.8928 28.6355 18.6398C28.3825 18.3824 28.0718 18.2537 27.7034 18.2537C27.335 18.2537 27.0243 18.3824 26.7713 18.6398C26.5183 18.8928 26.3918 19.2035 26.3918 19.5719C26.3918 19.9403 26.5183 20.2532 26.7713 20.5107ZM31.7231 17.8275C32.2157 17.8275 32.613 18.0029 32.9148 18.3535C33.2211 18.6997 33.3742 19.1103 33.3742 19.5852C33.3742 19.6341 33.3698 19.7029 33.3609 19.7916H30.4381C30.4825 20.129 30.6245 20.3975 30.8642 20.5972C31.1083 20.7925 31.4079 20.8902 31.763 20.8902C32.016 20.8902 32.2335 20.8391 32.4155 20.737C32.6019 20.6305 32.7417 20.4929 32.8349 20.3243L33.2211 20.5506C33.0746 20.7859 32.8749 20.9723 32.6219 21.1099C32.3689 21.2475 32.0804 21.3163 31.7563 21.3163C31.2326 21.3163 30.8065 21.1521 30.478 20.8236C30.1496 20.4951 29.9853 20.0779 29.9853 19.5719C29.9853 19.0748 30.1474 18.6598 30.4714 18.3269C30.7954 17.994 31.2126 17.8275 31.7231 17.8275ZM31.7231 18.2537C31.3768 18.2537 31.0861 18.358 30.8509 18.5666C30.6201 18.7707 30.4825 19.0371 30.4381 19.3655H32.9215C32.8771 19.0149 32.7417 18.7419 32.5153 18.5466C32.289 18.3513 32.0249 18.2537 31.7231 18.2537ZM35.74 18.3335H34.7813V20.3509C34.7813 20.5329 34.8168 20.6638 34.8878 20.7437C34.9588 20.8192 35.0653 20.8591 35.2074 20.8635C35.3494 20.8635 35.527 20.8591 35.74 20.8502V21.2364C35.274 21.3074 34.9233 21.2741 34.6881 21.1365C34.4573 20.9989 34.3418 20.737 34.3418 20.3509V18.3335H33.6428V17.9074H34.3418V17.1085L34.7813 16.9753V17.9074H35.74V18.3335ZM39.1337 17.9074H39.5731V21.2364H39.1337V20.5839C38.8274 21.0722 38.3792 21.3163 37.7888 21.3163C37.3139 21.3163 36.9078 21.1476 36.5704 20.8103C36.2375 20.473 36.0711 20.0602 36.0711 19.5719C36.0711 19.0837 36.2375 18.6709 36.5704 18.3335C36.9078 17.9962 37.3139 17.8275 37.7888 17.8275C38.3792 17.8275 38.8274 18.0717 39.1337 18.5599V17.9074ZM36.89 20.5107C37.143 20.7637 37.4537 20.8902 37.8221 20.8902C38.1905 20.8902 38.5012 20.7637 38.7542 20.5107C39.0072 20.2532 39.1337 19.9403 39.1337 19.5719C39.1337 19.2035 39.0072 18.8928 38.7542 18.6398C38.5012 18.3824 38.1905 18.2537 37.8221 18.2537C37.4537 18.2537 37.143 18.3824 36.89 18.6398C36.637 18.8928 36.5105 19.2035 36.5105 19.5719C36.5105 19.9403 36.637 20.2532 36.89 20.5107Z" fill="#1E2026"/>
</g>
<defs>
<clipPath id="clip0_2_1117">
<rect width="46" height="23" fill="white" transform="translate(0 0.5)"/>
</clipPath>
</defs>
</svg>
