<svg width="20" height="20" viewBox="0 0 20 20" fill="none" xmlns="http://www.w3.org/2000/svg">
<mask id="mask0_2_2439" style="mask-type:alpha" maskUnits="userSpaceOnUse" x="0" y="0" width="20" height="20">
<rect width="20" height="20" fill="#D9D9D9"/>
</mask>
<g mask="url(#mask0_2_2439)">
<path d="M14.2278 10.4159H4.58366C4.46505 10.4159 4.36595 10.3761 4.28637 10.2966C4.20678 10.217 4.16699 10.1179 4.16699 9.99927C4.16699 9.88066 4.20678 9.78156 4.28637 9.70198C4.36595 9.6224 4.46505 9.58261 4.58366 9.58261L14.2278 9.58261L11.1157 6.47052C11.0345 6.38927 10.992 6.29365 10.9882 6.18365C10.9845 6.07351 11.027 5.97254 11.1157 5.88073C11.2075 5.78879 11.3066 5.74205 11.413 5.74052C11.5193 5.73886 11.6184 5.784 11.7103 5.87594L15.3624 9.52802C15.4352 9.6008 15.4862 9.67511 15.5155 9.75094C15.545 9.82677 15.5597 9.90955 15.5597 9.99927C15.5597 10.089 15.545 10.1718 15.5155 10.2476C15.4862 10.3234 15.4352 10.3977 15.3624 10.4705L11.7103 14.1226C11.6291 14.2039 11.5326 14.2464 11.421 14.2501C11.3093 14.2539 11.2075 14.2098 11.1157 14.1178C11.027 14.026 10.9819 13.9277 10.9803 13.823C10.9787 13.7183 11.0238 13.62 11.1157 13.528L14.2278 10.4159Z" fill="#6947BF"/>
</g>
</svg>
