<svg width="20" height="20" viewBox="0 0 20 20" fill="none" xmlns="http://www.w3.org/2000/svg">
<mask id="mask0_2_1937" style="mask-type:alpha" maskUnits="userSpaceOnUse" x="0" y="0" width="20" height="20">
<rect width="20" height="20" fill="#D9D9D9"/>
</mask>
<g mask="url(#mask0_2_1937)">
<path d="M16.2855 17.1475L11.0515 11.9133C10.6348 12.2574 10.1557 12.5266 9.614 12.721C9.07233 12.9155 8.51198 13.0127 7.93296 13.0127C6.50865 13.0127 5.30323 12.5196 4.31671 11.5333C3.33018 10.5471 2.83691 9.34194 2.83691 7.91791C2.83691 6.49402 3.33004 5.28847 4.31629 4.30124C5.30254 3.31416 6.50768 2.82062 7.93171 2.82062C9.35559 2.82062 10.5612 3.31388 11.5484 4.30041C12.5355 5.28694 13.029 6.49235 13.029 7.91666C13.029 8.5118 12.9291 9.0802 12.7294 9.62187C12.5296 10.1635 12.263 10.6346 11.9296 11.0352L17.1636 16.2692L16.2855 17.1475ZM7.93296 11.7629C9.00671 11.7629 9.91615 11.3903 10.6613 10.645C11.4066 9.89985 11.7792 8.99041 11.7792 7.91666C11.7792 6.84291 11.4066 5.93346 10.6613 5.18833C9.91615 4.44305 9.00671 4.07041 7.93296 4.07041C6.85921 4.07041 5.94976 4.44305 5.20462 5.18833C4.45934 5.93346 4.08671 6.84291 4.08671 7.91666C4.08671 8.99041 4.45934 9.89985 5.20462 10.645C5.94976 11.3903 6.85921 11.7629 7.93296 11.7629ZM7.30796 10.1602V8.54166H5.68941V7.29166H7.30796V5.67312H8.55796V7.29166H10.1765V8.54166H8.55796V10.1602H7.30796Z" fill="#5B6170"/>
</g>
</svg>
